Simulation
nRows=48
nColumns=15
endheader
time  TH_x TH_y TH_z SC_y  SC_z  SC_x  AC_y  AC_z  AC_x  GH_y  GH_z  GH_yy  EL_x  PS_y
0.0  0.000000  0.000000  0.000000  -30.52008711983941  -1.5029603071167468  11.75135315377127  57.00219082730007  -6.574828991811838  -12.754482406038795  17.898076063142277  0.06997163768661088  6.11618686702655  25.492755481283652  0.000000
0.015  0.000000  0.000000  0.000000  -30.60855984951959  -1.5690222069332531  11.809348440581516  57.04285193770913  -6.527186688037516  -12.771098981901048  17.817400719505805  0.3190741043201779  5.999405668436996  25.517862252400366  0.000000
0.03  0.000000  0.000000  0.000000  -30.572225696345555  -1.5405248766877861  11.878284394415408  57.093582686759135  -6.536104562007028  -12.776114615120568  17.830198258579458  0.6065318549590094  5.9086432412723005  25.535943084457184  0.000000
0.045  0.000000  0.000000  0.000000  -30.58480198438786  -1.4981487210794264  11.964242130057624  57.11323461707282  -6.55700919409002  -12.786453171747715  17.90147173738921  0.9465959046551551  5.784481498473069  25.524511587659905  0.000000
0.06  0.000000  0.000000  0.000000  -30.610390803877472  -1.4624463399787797  12.057055699655265  57.12020323444868  -6.589274856299886  -12.808487450049983  17.975862728804408  1.334054582158428  5.5651515848817  25.49685698732783  0.000000
0.075  0.000000  0.000000  0.000000  -30.659489448988662  -1.4323358303151161  12.159152606890897  57.13669034894709  -6.631371813862116  -12.83693498699201  18.07301552063163  1.774301297307755  5.27370309571126  25.45207336831357  0.000000
0.09  0.000000  0.000000  0.000000  -30.71269880195814  -1.402936041542881  12.274516955625945  57.14709509474786  -6.679414301343359  -12.870544996270946  18.182881094014032  2.2506313861300153  4.9080363371811755  25.399417597196916  0.000000
0.105  0.000000  0.000000  0.000000  -30.76830318468487  -1.3719191925507666  12.40042077784987  57.164203039038306  -6.734989313225993  -12.905906550876761  18.30463712666966  2.7672002949104106  4.477283856223645  25.33909276131944  0.000000
0.12  0.000000  0.000000  0.000000  -30.825093734910748  -1.3380648616465816  12.53824268992892  57.183013268442174  -6.793627564532426  -12.943915609095582  18.436587507479317  3.318262213243555  3.99100371994959  25.276433862095914  0.000000
0.135  0.000000  0.000000  0.000000  -30.880395708052948  -1.2999507426424746  12.686518506162505  57.20448106664014  -6.8545768788550605  -12.982710720338114  18.574841266817838  3.902174683264067  3.4558993611933366  25.209854601180062  0.000000
0.15  0.000000  0.000000  0.000000  -30.934705764409355  -1.2579685072786704  12.84402357396093  57.229565705646806  -6.914796781239372  -13.023089884682106  18.71702258972806  4.516978245500209  2.8801780297130826  25.141575438360356  0.000000
0.16499999999999998  0.000000  0.000000  0.000000  -30.987380453102276  -1.2116682652514266  13.009897027647488  57.256642100422816  -6.9721518600281875  -13.064462479058005  18.861023465966646  5.1595821489312055  2.271393310337516  25.070643594576836  0.000000
0.18  0.000000  0.000000  0.000000  -31.038335610666902  -1.1616063010859807  13.182434061110227  57.28695207080533  -7.024591359148718  -13.10699772206466  19.00389698031387  5.828047617961249  1.6356592426221077  24.997659854546992  0.000000
0.195  0.000000  0.000000  0.000000  -31.087828918076525  -1.1080263555171626  13.360902668908226  57.31960989315048  -7.070129600012909  -13.150614684665216  19.144448168676384  6.519625792790851  0.9800192339293389  24.92219511541965  0.000000
0.21  0.000000  0.000000  0.000000  -31.135558394235193  -1.0511612386026903  13.543748358069784  57.35536041637792  -7.107060130180618  -13.19486934963363  19.280577069835555  7.232014695507659  0.3097259046648503  24.844096826345613  0.000000
0.22499999999999998  0.000000  0.000000  0.000000  -31.181982632873915  -0.9910074106517156  13.72967717828812  57.39356360693408  -7.133102614243813  -13.239409882413913  19.41160823397461  7.962643255424223  -0.3693936351216969  24.7634760223309  0.000000
0.24  0.000000  0.000000  0.000000  -31.227226120851874  -0.9275403292420359  13.917554262504014  57.43465536472721  -7.146928564394858  -13.283825273681433  19.536027874628427  8.709454169448794  -1.0531471800885293  24.680510650368547  0.000000
0.255  0.000000  0.000000  0.000000  -31.271578776738398  -0.8608883803569475  14.10645843430099  57.478283848258656  -7.147088282881437  -13.327500685891204  19.653092842532647  9.470468822706335  -1.7372140554609685  24.594988536645804  0.000000
0.27  0.000000  0.000000  0.000000  -31.31519690452783  -0.7912121901047872  14.294718305776144  57.52536901418452  -7.132013411316675  -13.369430431725148  19.76157405638225  10.244281554869819  -2.4185097994477465  24.506890235843148  0.000000
0.285  0.000000  0.000000  0.000000  -31.358265546434588  -0.718275846780086  14.480817378242028  57.57549441327273  -7.099592790564163  -13.408657471626613  19.861095161606443  11.029322954684707  -3.0936734137252415  24.416357982993397  0.000000
0.3  0.000000  0.000000  0.000000  -31.401068269912457  -0.641789915587673  14.663560903720354  57.6286911047581  -7.047878027454755  -13.444499360578234  19.951140701784098  11.824231785800364  -3.7600428637569676  24.323631247114307  0.000000
0.315  0.000000  0.000000  0.000000  -31.44392307069489  -0.5613870638831261  14.84215294827978  57.68417150407033  -6.975548488801113  -13.476528696805246  20.031270698225725  12.62783564265394  -4.415402340093134  24.228656815323596  0.000000
0.32999999999999996  0.000000  0.000000  0.000000  -31.48783933823065  -0.47714191555354846  15.016624759087101  57.74258763692006  -6.882334946912451  -13.50475141991847  20.100737916773447  13.439187149836245  -5.058433766228111  24.13139648127219  0.000000
0.345  0.000000  0.000000  0.000000  -31.534261346264362  -0.38860874297069664  15.187884514844049  57.80438984864991  -6.768308567102079  -13.52881567618598  20.15962526326853  14.256689612305797  -5.687336059942858  24.032087702441  0.000000
0.36  0.000000  0.000000  0.000000  -31.583853507948568  -0.29476047983075526  15.355682735214897  57.87118339610265  -6.63371715793724  -13.547104325857289  20.207879489665853  15.078572445139848  -6.301332599395529  23.930859728524595  0.000000
0.375  0.000000  0.000000  0.000000  -31.637209602322933  -0.19589197641383438  15.518176501672638  57.94406619026909  -6.477843247193313  -13.557383423573427  20.24632516172784  15.902769478846924  -6.899022224148474  23.827269239475243  0.000000
0.39  0.000000  0.000000  0.000000  -31.693909845177497  -0.09297477762067187  15.671205692857294  58.02409415807383  -6.299066085468053  -13.556169776907904  20.275422574115307  16.726461953367288  -7.480013877774154  23.720798794614634  0.000000
0.40499999999999997  0.000000  0.000000  0.000000  -31.752199207644377  0.0133928098534139  15.810590079430265  58.111134813221604  -6.096420730200999  -13.53978958280576  20.295805857405288  17.546158115253473  -8.044037663973047  23.61046302729773  0.000000
0.42  0.000000  0.000000  0.000000  -31.810845919093914  0.12264404854825672  15.934675148904294  58.204879163627666  -5.870550512677152  -13.50577217214588  20.30831913459209  18.358011658954325  -8.590899581782327  23.4956638304177  0.000000
0.435  0.000000  0.000000  0.000000  -31.87149354502543  0.23427977857156398  16.04851586895327  58.305234396298516  -5.62664155770038  -13.454382592449964  20.31480872935797  19.15893869668822  -9.119877280685314  23.376528713824108  0.000000
0.44999999999999996  0.000000  0.000000  0.000000  -31.935994454465003  0.34817476840046646  16.160333173031475  58.41472858020379  -5.372190073838317  -13.38787781670302  20.317199242388888  19.94760026753934  -9.631531608348299  23.252746180446326  0.000000
0.46499999999999997  0.000000  0.000000  0.000000  -32.005330059789486  0.46299699269406136  16.277408787957498  58.535783013618634  -5.111863789729194  -13.310967190788853  20.317748193270376  20.72410443689584  -10.126008204098538  23.124479426800207  0.000000
0.48  0.000000  0.000000  0.000000  -32.079606665881556  0.5758379822781097  16.40541238088598  58.66867186829451  -4.8469367087012705  -13.230773666707986  20.31807077422423  21.488988387004447  -10.603501186744097  22.992762418073877  0.000000
0.495  0.000000  0.000000  0.000000  -32.15795058823313  0.6839004846560542  16.547814156602666  58.81131265813121  -4.576812329340445  -13.154729137993485  20.31882617345866  22.24290485310076  -11.064774396266175  22.858496370955876  0.000000
0.51  0.000000  0.000000  0.000000  -32.23910988074646  0.7861699076761092  16.70401534897855  58.96052921142036  -4.299020893625873  -13.087219118997147  20.320160091932888  22.98628772645411  -11.510885810909041  22.721881044679836  0.000000
0.525  0.000000  0.000000  0.000000  -32.32227307325481  0.8838466036812561  16.87127449744374  59.11264941798012  -4.011419997816809  -13.028938316717186  20.322265908752946  23.71922266587655  -11.942805236476474  22.582260817058888  0.000000
0.54  0.000000  0.000000  0.000000  -32.40745802328971  0.9791992752318718  17.04743542065168  59.26453044612  -3.713684174455026  -12.978735074431368  20.32518229507806  24.441420684418567  -12.36176462880387  22.438919611374132  0.000000
0.5549999999999999  0.000000  0.000000  0.000000  -32.49533897981206  1.0745351947846904  17.231042570636703  59.41381955672262  -3.406231000771266  -12.93467302482616  20.329240430906523  25.152253385222167  -12.768827901454918  22.291262707026814  0.000000
0.57  0.000000  0.000000  0.000000  -32.58666480058047  1.171831680292454  17.421329978391714  59.55923328009014  -3.0899149205819847  -12.8948699954171  20.334975062858526  25.850957275175297  -13.16498672445333  22.138812003328685  0.000000
0.585  0.000000  0.000000  0.000000  -32.68211979781362  1.272421902956816  17.61761015828109  59.7000179560453  -2.765299271564834  -12.857560108144977  20.343070027907658  26.536751153042903  -13.551264441254244  21.981368283280514  0.000000
0.6  0.000000  0.000000  0.000000  -32.78221681415927  1.3769837856594278  17.81935085339619  59.835934369369845  -2.4329744830841324  -12.821313916180724  20.354084137463513  27.209103703399517  -13.928885495272688  21.818809483400017  0.000000
0.615  0.000000  0.000000  0.000000  -32.8872680921694  1.4857142677741322  18.026296322256762  59.96673523323515  -2.0934587177224087  -12.78501006991454  20.368709675521515  27.867514868162218  -14.298906537314414  21.65100094498359  0.000000
0.63  0.000000  0.000000  0.000000  -32.99755907955646  1.5987252308253759  18.238249870333878  60.092236592197594  -1.747429615492799  -12.747713560432222  20.387543978923063  28.511664981580264  -14.662351973047455  21.478049543970624  0.000000
0.645  0.000000  0.000000  0.000000  -33.11351782109082  1.7163597387061205  18.455012359053303  60.2124473766415  -1.3957294035047851  -12.708564911848882  20.41117095188401  29.141267207986285  -15.020224171806017  21.300339023462367  0.000000
0.6599999999999999  0.000000  0.000000  0.000000  -33.235644519548664  1.8388565946531612  18.676503131854155  60.327512381563444  -1.039192126355824  -12.6668186276823  20.440061635161673  29.755991337712434  -15.373221370306087  21.118296084976446  0.000000
0.6749999999999999  0.000000  0.000000  0.000000  -33.36434170378803  1.9662392099173822  18.90271163789009  60.43745818669769  -0.6785916337680745  -12.621689864088827  20.47466437064998  30.355460866620525  -15.722005591442516  20.932258573048532  0.000000
0.69  0.000000  0.000000  0.000000  -33.49991376699397  2.098425206628698  19.133361211394348  60.542536390946  -0.31471959760158474  -12.57233302668546  20.515235209691156  30.939566828371174  -16.067312894838576  20.742540602051378  0.000000
0.705  0.000000  0.000000  0.000000  -33.6426473450828  2.235327508914947  19.368554343833257  60.642944961741996  0.051338659381780616  -12.51797480643167  20.56213447522042  31.508156355826635  -16.40973959417417  20.54957194106214  0.000000
